<svg width="247" height="247" viewBox="0 0 247 247" fill="none" xmlns="http://www.w3.org/2000/svg">
<circle cx="123.5" cy="123.5" r="123.5" fill="#4F46E5"/>
<path d="M77.072 159.28C71.5253 159.28 66.448 157.744 61.84 154.672C57.3173 151.6 53.6907 147.419 50.96 142.128C48.2293 136.837 46.864 130.864 46.864 124.208C46.864 117.467 48.2293 111.493 50.96 106.288C53.776 100.997 57.5307 96.8587 62.224 93.872C67.0027 90.8853 72.336 89.392 78.224 89.392C81.7227 89.392 84.9227 89.904 87.824 90.928C90.7253 91.952 93.2427 93.4027 95.376 95.28C97.5947 97.072 99.3867 99.1627 100.752 101.552C102.203 103.941 103.099 106.501 103.44 109.232L100.496 108.208V90.8H113.808V158H100.496V142L103.568 141.104C103.056 143.408 101.989 145.669 100.368 147.888C98.832 150.021 96.8267 151.941 94.352 153.648C91.9627 155.355 89.2747 156.72 86.288 157.744C83.3867 158.768 80.3147 159.28 77.072 159.28ZM80.528 147.12C84.5387 147.12 88.08 146.139 91.152 144.176C94.224 142.213 96.6133 139.525 98.32 136.112C100.112 132.613 101.008 128.645 101.008 124.208C101.008 119.856 100.112 115.973 98.32 112.56C96.6133 109.147 94.224 106.459 91.152 104.496C88.08 102.533 84.5387 101.552 80.528 101.552C76.6027 101.552 73.104 102.533 70.032 104.496C67.0453 106.459 64.656 109.147 62.864 112.56C61.1573 115.973 60.304 119.856 60.304 124.208C60.304 128.645 61.1573 132.613 62.864 136.112C64.656 139.525 67.0453 142.213 70.032 144.176C73.104 146.139 76.6027 147.12 80.528 147.12ZM132.216 186.16V90.8H145.528V106.16L143.48 105.008C143.992 102.448 145.443 100.016 147.832 97.712C150.221 95.3227 153.123 93.4027 156.536 91.952C160.035 90.416 163.619 89.648 167.288 89.648C173.347 89.648 178.723 91.1413 183.416 94.128C188.109 97.1147 191.821 101.211 194.552 106.416C197.283 111.621 198.648 117.595 198.648 124.336C198.648 130.992 197.283 136.965 194.552 142.256C191.907 147.461 188.237 151.6 183.544 154.672C178.851 157.659 173.56 159.152 167.672 159.152C163.747 159.152 159.949 158.384 156.28 156.848C152.611 155.227 149.496 153.179 146.936 150.704C144.376 148.229 142.797 145.669 142.2 143.024L145.528 141.232V186.16H132.216ZM165.496 146.992C169.421 146.992 172.92 146.011 175.992 144.048C179.064 142.085 181.496 139.397 183.288 135.984C185.08 132.571 185.976 128.688 185.976 124.336C185.976 119.984 185.08 116.144 183.288 112.816C181.581 109.403 179.192 106.715 176.12 104.752C173.048 102.789 169.507 101.808 165.496 101.808C161.485 101.808 157.944 102.789 154.872 104.752C151.8 106.629 149.368 109.275 147.576 112.688C145.784 116.101 144.888 119.984 144.888 124.336C144.888 128.688 145.784 132.571 147.576 135.984C149.368 139.397 151.8 142.085 154.872 144.048C157.944 146.011 161.485 146.992 165.496 146.992Z" fill="white"/>
</svg>
