<svg width="537" height="537" viewBox="0 0 537 537" fill="none" xmlns="http://www.w3.org/2000/svg">
<circle cx="268.5" cy="268.5" r="268.5" fill="url(#paint0_linear_1_15)"/>
<path d="M249.333 393C211.633 393 179.656 379.872 153.401 353.618C127.147 327.363 114.013 295.379 114 257.667V141.667C114 131.033 117.789 121.934 125.368 114.368C132.947 106.802 142.046 103.013 152.667 103H394.333C413.022 103 428.972 109.606 442.183 122.817C455.394 136.028 462 151.978 462 170.667C462 189.355 455.394 205.305 442.183 218.517C428.972 231.728 413.022 238.333 394.333 238.333H384.667V257.667C384.667 295.367 371.539 327.35 345.285 353.618C319.03 379.885 287.046 393.013 249.333 393ZM152.667 199.667H346V141.667H152.667V199.667ZM249.333 354.333C276.078 354.333 298.878 344.905 317.735 326.048C336.591 307.192 346.013 284.398 346 257.667V238.333H152.667V257.667C152.667 284.411 162.095 307.211 180.951 326.068C199.808 344.924 222.602 354.346 249.333 354.333ZM384.667 199.667H394.333C402.389 199.667 409.239 196.85 414.885 191.218C420.53 185.585 423.346 178.735 423.333 170.667C423.32 162.598 420.504 155.754 414.885 150.135C409.265 144.515 402.415 141.692 394.333 141.667H384.667V199.667ZM133.333 451C127.856 451 123.267 449.144 119.568 445.432C115.869 441.72 114.013 437.131 114 431.666C113.987 426.202 115.843 421.613 119.568 417.901C123.293 414.189 127.881 412.333 133.333 412.333H404C409.478 412.333 414.073 414.189 417.785 417.901C421.497 421.613 423.346 426.202 423.333 431.666C423.32 437.131 421.464 441.726 417.765 445.451C414.066 449.176 409.478 451.026 404 451H133.333Z" fill="#E9E9E9"/>
<defs>
<linearGradient id="paint0_linear_1_15" x1="122" y1="38" x2="438" y2="476" gradientUnits="userSpaceOnUse">
<stop offset="0.395754" stop-color="#FF1B6B"/>
<stop offset="0.877301" stop-color="#45CAFF"/>
</linearGradient>
</defs>
</svg>
