<svg width="500" height="500" viewBox="0 0 500 500" fill="none" xmlns="http://www.w3.org/2000/svg">
<circle cx="250" cy="250" r="250" fill="#E5E5E5"/>
<path fill-rule="evenodd" clip-rule="evenodd" d="M406.793 115.626L408.516 121.529L410.279 128.224L411.151 131.889L412.914 139.812L414.598 148.587L416.202 158.194C416.704 161.535 417.192 165.021 417.668 168.653L418.955 179.983C420.54 195.652 421.55 213.658 421.55 234.08C421.55 254.502 420.56 272.508 418.975 288.177L417.668 299.507C417.206 303.139 416.717 306.625 416.202 309.966L414.617 319.573L412.914 328.348L411.151 336.271L409.388 343.402L407.645 349.682L406.793 352.534C400.236 374.066 377.794 382.345 359.372 376.205L335.998 368.42L328.075 386.901C324.162 396.034 316.961 403.363 307.899 407.435C298.836 411.508 288.575 412.026 279.148 408.889L178.205 375.215C173.009 373.482 168.229 370.69 164.166 367.016C160.104 363.342 156.847 358.866 154.602 353.87C152.357 348.874 151.173 343.467 151.124 337.989C151.074 332.512 152.161 327.085 154.316 322.049L159.644 309.609L144.233 304.499L117.136 313.531C111.18 315.515 104.838 316.055 98.6328 315.107C92.4274 314.159 86.5362 311.749 81.4447 308.078C76.3531 304.406 72.2069 299.577 69.3478 293.989C66.4887 288.4 64.9985 282.212 65 275.935V192.245C64.9985 185.967 66.4887 179.78 69.3478 174.191C72.2069 168.603 76.3531 163.774 81.4447 160.102C86.5362 156.43 92.4274 154.021 98.6328 153.073C104.838 152.125 111.18 152.665 117.136 154.649L144.233 163.681L359.372 91.9749C377.794 85.8343 400.236 94.0944 406.793 115.626ZM197.359 322.188L190.724 337.638L291.667 371.312L298.303 355.842L197.359 322.188ZM369.811 130.245L164.042 198.841V269.319L369.811 337.915L371.336 332.31L372.921 325.832L373.713 322.267L375.258 314.462C375.796 311.57 376.298 308.671 376.764 305.766L378.15 296.159C380.369 279.382 381.934 258.781 381.934 234.08C381.934 209.379 380.349 188.778 378.17 172.001L376.764 162.394C376.275 159.356 375.773 156.451 375.258 153.678L373.693 145.893L372.109 138.98L369.811 130.245ZM104.617 192.245V275.935L124.425 269.319V198.841L104.617 192.245Z" fill="url(#paint0_linear_2_30)"/>
<defs>
<linearGradient id="paint0_linear_2_30" x1="243.275" y1="90" x2="243.275" y2="410.916" gradientUnits="userSpaceOnUse">
<stop offset="0.576697" stop-color="#FF0B0B"/>
<stop offset="1" stop-color="#AE0000"/>
</linearGradient>
</defs>
</svg>
